<?xml version="1.0" standalone="no"?>
<!DOCTYPE svg PUBLIC "-//W3C//DTD SVG 20010904//EN"
 "http://www.w3.org/TR/2001/REC-SVG-20010904/DTD/svg10.dtd">
<svg version="1.0" xmlns="http://www.w3.org/2000/svg"
 width="150.000000pt" height="150.000000pt" viewBox="0 0 150.000000 150.000000"
 preserveAspectRatio="xMidYMid meet">
<metadata>
Created by potrace 1.14, written by Peter Selinger 2001-2017
</metadata>
<g transform="translate(0.000000,150.000000) scale(0.100000,-0.100000)"
fill="#000000" stroke="none">
<path d="M610 1485 c-158 -32 -268 -92 -386 -210 -77 -76 -98 -105 -137 -185
-65 -132 -81 -201 -81 -340 0 -139 16 -208 81 -340 39 -80 61 -109 137 -186
77 -76 106 -98 186 -137 132 -65 201 -81 340 -81 139 0 208 16 340 81 80 39
109 61 186 137 76 77 98 106 137 186 26 52 55 124 64 160 24 89 24 272 0 360
-19 72 -74 194 -109 243 -18 25 -23 46 -23 92 -1 74 -29 127 -86 155 -42 22
-105 26 -142 9 -21 -9 -37 -6 -92 16 -132 52 -282 67 -415 40z m349 -80 c76
-24 82 -28 76 -48 -4 -12 -10 -47 -12 -77 -4 -46 0 -61 19 -89 54 -80 137
-102 219 -58 l46 25 37 -61 c20 -34 48 -98 63 -142 23 -69 26 -97 26 -205 0
-108 -3 -136 -26 -205 -37 -111 -90 -198 -172 -280 -82 -82 -169 -135 -280
-172 -69 -23 -97 -26 -205 -26 -108 0 -136 3 -205 26 -111 37 -198 90 -280
172 -82 82 -135 169 -172 280 -23 69 -26 97 -26 205 0 108 3 136 26 205 37
111 90 198 172 280 104 103 230 170 369 195 86 15 231 4 325 -25z m296 -15
c57 -35 80 -112 51 -168 -62 -118 -227 -103 -256 23 -14 62 20 133 75 155 36
16 97 11 130 -10z"/>
<path d="M894 1039 c-110 -63 -194 -125 -194 -144 0 -7 4 -25 10 -40 5 -14 15
-67 21 -117 12 -98 2 -269 -25 -422 l-13 -77 29 -24 c16 -14 41 -28 55 -31 68
-18 224 29 328 98 118 79 157 216 79 277 -22 17 -26 32 -35 118 -17 165 -51
285 -99 352 -49 67 -55 67 -156 10z m122 -34 c22 -30 27 -47 28 -98 l1 -62
-143 -3 -142 -3 -12 26 c-11 24 -9 29 18 50 41 34 195 125 210 125 7 0 25 -16
40 -35z m79 -253 c8 -46 15 -101 14 -121 -1 -20 -7 7 -14 60 -7 53 -18 114
-24 135 -13 47 -13 68 0 35 5 -13 16 -62 24 -109z m27 -191 c2 -17 1 -28 -4
-25 -8 5 -12 54 -4 54 2 0 6 -13 8 -29z m58 -95 c0 -20 -34 -86 -45 -86 -2 0
4 15 15 33 24 39 25 64 4 97 l-16 25 21 -24 c12 -13 21 -33 21 -45z m-82 -23
c-10 -2 -28 -2 -40 0 -13 2 -5 4 17 4 22 1 32 -1 23 -4z m22 -51 c0 -37 -2
-40 -72 -80 -145 -82 -253 -107 -296 -69 -17 15 -18 24 -11 65 5 26 11 61 14
79 7 38 11 39 228 41 l137 2 0 -38z"/>
<path d="M273 1006 c-159 -52 -237 -217 -169 -361 80 -171 297 -213 428 -83
95 96 103 256 18 360 -60 73 -190 112 -277 84z m157 -48 c78 -29 140 -122 140
-209 0 -64 -43 -145 -99 -184 -39 -27 -50 -30 -124 -30 -74 0 -86 3 -125 29
-65 44 -97 106 -97 186 0 53 5 74 28 112 57 98 168 136 277 96z"/>
<path d="M232 810 c-30 -28 -36 -62 -18 -98 39 -76 146 -46 146 40 0 66 -80
102 -128 58z"/>
<path d="M1196 1367 c-36 -27 -14 -97 31 -97 18 0 53 37 53 55 0 18 -35 55
-53 55 -7 0 -21 -6 -31 -13z"/>
</g>
</svg>
